<?xml version="1.0" encoding="UTF-8"?>
<!DOCTYPE svg PUBLIC "-//W3C//DTD SVG 1.1//EN" "http://www.w3.org/Graphics/SVG/1.1/DTD/svg11.dtd">
<svg xmlns="http://www.w3.org/2000/svg" version="1.1" width="503px" height="430px" style="shape-rendering:geometricPrecision; text-rendering:geometricPrecision; image-rendering:optimizeQuality; fill-rule:evenodd; clip-rule:evenodd" xmlns:xlink="http://www.w3.org/1999/xlink">
<g><path style="opacity:0.976" fill="#b63936" d="M 243.5,44.5 C 242.737,45.2679 241.737,45.7679 240.5,46C 237.183,46.4983 233.85,46.665 230.5,46.5C 234.591,45.1045 238.924,44.4379 243.5,44.5 Z"/></g>
<g><path style="opacity:1" fill="#d23333" d="M 243.5,44.5 C 261.378,42.9414 275.711,49.2747 286.5,63.5C 288.428,65.7808 289.428,68.4475 289.5,71.5C 290.822,71.33 291.989,71.6634 293,72.5C 293.081,75.8099 294.581,78.1432 297.5,79.5C 299.139,83.4634 301.472,86.7967 304.5,89.5C 304.5,89.8333 304.5,90.1667 304.5,90.5C 305.32,94.796 306.654,98.9626 308.5,103C 307.507,105.453 307.34,107.953 308,110.5C 308.718,111.451 309.551,111.617 310.5,111C 309.193,109.057 309.193,107.223 310.5,105.5C 311.338,105.158 311.672,104.492 311.5,103.5C 311.45,99.8119 311.116,96.1452 310.5,92.5C 310.585,90.6672 311.252,89.3339 312.5,88.5C 312.414,89.4959 312.748,90.3292 313.5,91C 316.863,92.6502 320.363,93.8169 324,94.5C 325.576,97.2824 325.743,100.116 324.5,103C 325.62,104.737 326.62,106.571 327.5,108.5C 331.415,110.382 334.248,109.382 336,105.5C 336.667,108.5 336.667,111.5 336,114.5C 333.239,112.023 331.406,112.356 330.5,115.5C 329.5,116 328.5,116.5 327.5,117C 332.998,117.448 334.498,119.948 332,124.5C 330.477,126.62 328.644,126.953 326.5,125.5C 326.935,127.403 326.268,129.069 324.5,130.5C 318.665,132.467 312.665,133.801 306.5,134.5C 304.76,137.412 303.427,140.412 302.5,143.5C 301.18,144.942 299.514,145.608 297.5,145.5C 297.905,149.048 297.405,152.381 296,155.5C 293.232,152.583 291.732,153.25 291.5,157.5C 292.249,159.036 293.249,160.369 294.5,161.5C 294.291,162.086 293.957,162.586 293.5,163C 289.168,162.837 284.834,162.337 280.5,161.5C 268.821,158.804 256.987,157.137 245,156.5C 237.464,156.839 229.964,157.505 222.5,158.5C 217.808,158.425 213.474,159.425 209.5,161.5C 206.881,161.768 204.381,161.435 202,160.5C 200.951,162.107 199.451,162.773 197.5,162.5C 195.526,157.456 193.86,152.456 192.5,147.5C 192.5,147.167 192.5,146.833 192.5,146.5C 193.08,142.351 192.414,138.684 190.5,135.5C 184.681,134.672 178.681,134.172 172.5,134C 163.808,131.145 158.475,125.312 156.5,116.5C 155.573,110.189 155.406,103.856 156,97.5C 157.474,93.5621 158.641,89.5621 159.5,85.5C 165.317,74.8505 173.65,66.6838 184.5,61C 198.928,53.2458 214.262,48.4125 230.5,46.5C 233.85,46.665 237.183,46.4983 240.5,46C 241.737,45.7679 242.737,45.2679 243.5,44.5 Z"/></g>
<g><path style="opacity:1" fill="#c3393a" d="M 286.5,63.5 C 293.977,71.1127 299.977,79.7793 304.5,89.5C 301.472,86.7967 299.139,83.4634 297.5,79.5C 294.581,78.1432 293.081,75.8099 293,72.5C 291.989,71.6634 290.822,71.33 289.5,71.5C 289.428,68.4475 288.428,65.7808 286.5,63.5 Z"/></g>
<g><path style="opacity:0.984" fill="#ba3a3c" d="M 159.5,85.5 C 158.641,89.5621 157.474,93.5621 156,97.5C 155.406,103.856 155.573,110.189 156.5,116.5C 153.583,106.481 154.083,96.4812 158,86.5C 158.383,85.944 158.883,85.6107 159.5,85.5 Z"/></g>
<g><path style="opacity:1" fill="#c53836" d="M 312.5,88.5 C 311.252,89.3339 310.585,90.6672 310.5,92.5C 311.116,96.1452 311.45,99.8119 311.5,103.5C 310.662,103.842 310.328,104.508 310.5,105.5C 309.193,107.223 309.193,109.057 310.5,111C 309.551,111.617 308.718,111.451 308,110.5C 307.34,107.953 307.507,105.453 308.5,103C 306.654,98.9626 305.32,94.796 304.5,90.5C 306.795,94.1865 308.628,98.1865 310,102.5C 310.015,97.0689 309.182,91.7356 307.5,86.5C 307.667,86.1667 307.833,85.8333 308,85.5C 309.652,86.3994 311.152,87.3994 312.5,88.5 Z"/></g>
<g><path style="opacity:1" fill="#cb3537" d="M 312.5,88.5 C 321.349,90.0072 328.849,94.0072 335,100.5C 341.706,114.222 338.206,124.222 324.5,130.5C 326.268,129.069 326.935,127.403 326.5,125.5C 328.644,126.953 330.477,126.62 332,124.5C 334.498,119.948 332.998,117.448 327.5,117C 328.5,116.5 329.5,116 330.5,115.5C 331.406,112.356 333.239,112.023 336,114.5C 336.667,111.5 336.667,108.5 336,105.5C 334.248,109.382 331.415,110.382 327.5,108.5C 326.62,106.571 325.62,104.737 324.5,103C 325.743,100.116 325.576,97.2824 324,94.5C 320.363,93.8169 316.863,92.6502 313.5,91C 312.748,90.3292 312.414,89.4959 312.5,88.5 Z"/></g>
<g><path style="opacity:0.849" fill="#b93d42" d="M 190.5,135.5 C 192.414,138.684 193.08,142.351 192.5,146.5C 191.475,143.026 190.808,139.36 190.5,135.5 Z"/></g>
<g><path style="opacity:1" fill="#ca3537" d="M 302.5,143.5 C 300.467,151.1 298.133,158.6 295.5,166C 290.336,165.001 285.336,163.501 280.5,161.5C 284.834,162.337 289.168,162.837 293.5,163C 293.957,162.586 294.291,162.086 294.5,161.5C 293.249,160.369 292.249,159.036 291.5,157.5C 291.732,153.25 293.232,152.583 296,155.5C 297.405,152.381 297.905,149.048 297.5,145.5C 299.514,145.608 301.18,144.942 302.5,143.5 Z"/></g>
<g><path style="opacity:0.29" fill="#b33738" d="M 222.5,158.5 C 218.385,159.943 214.052,160.943 209.5,161.5C 213.474,159.425 217.808,158.425 222.5,158.5 Z"/></g>
<g><path style="opacity:1" fill="#c3393b" d="M 192.5,147.5 C 193.86,152.456 195.526,157.456 197.5,162.5C 199.451,162.773 200.951,162.107 202,160.5C 204.381,161.435 206.881,161.768 209.5,161.5C 204.733,163.615 199.733,165.281 194.5,166.5C 193.833,160.167 193.167,153.833 192.5,147.5 Z"/></g>
<g><path style="opacity:0.227" fill="#873e41" d="M 311.5,201.5 C 312.833,202.167 312.833,202.167 311.5,201.5 Z"/></g>
<g><path style="opacity:0.012" fill="#8e5655" d="M 176.5,203.5 C 175.475,203.103 175.308,202.437 176,201.5C 176.464,202.094 176.631,202.761 176.5,203.5 Z"/></g>
<g><path style="opacity:1" fill="#c43334" d="M 176.5,203.5 C 180.618,207.399 185.285,210.565 190.5,213C 195.22,213.717 199.886,213.55 204.5,212.5C 204.389,213.117 204.056,213.617 203.5,214C 198.447,214.217 193.447,214.717 188.5,215.5C 187.614,214.675 187.281,213.675 187.5,212.5C 183.63,210.686 181.963,212.019 182.5,216.5C 179.716,212.595 177.716,208.262 176.5,203.5 Z"/></g>
<g><path style="opacity:1" fill="#c93635" d="M 311.5,202.5 C 310.067,209.365 307.067,215.365 302.5,220.5C 301.758,218.574 300.758,216.741 299.5,215C 296.167,214.333 292.833,214.333 289.5,215C 291.025,216.009 292.692,216.509 294.5,216.5C 294.5,217.5 294.5,218.5 294.5,219.5C 291.657,219.058 288.991,218.058 286.5,216.5C 285.066,215.412 284.066,214.078 283.5,212.5C 295.105,215.358 304.439,212.024 311.5,202.5 Z"/></g>
<g><path style="opacity:1" fill="#d23333" d="M 227.5,206.5 C 227.611,207.117 227.944,207.617 228.5,208C 232.189,208.852 235.856,209.685 239.5,210.5C 241.17,210.751 242.67,211.418 244,212.5C 257.217,204.584 270.384,204.584 283.5,212.5C 284.066,214.078 285.066,215.412 286.5,216.5C 288.991,218.058 291.657,219.058 294.5,219.5C 294.5,218.5 294.5,217.5 294.5,216.5C 292.692,216.509 291.025,216.009 289.5,215C 292.833,214.333 296.167,214.333 299.5,215C 300.758,216.741 301.758,218.574 302.5,220.5C 300.906,223.764 298.573,226.431 295.5,228.5C 294.178,228.67 293.011,228.337 292,227.5C 291.383,228.449 291.549,229.282 292.5,230C 287.032,232.059 281.365,232.892 275.5,232.5C 269.984,231.742 265.317,229.409 261.5,225.5C 260.763,223.695 259.763,222.029 258.5,220.5C 254.184,219.704 249.517,219.038 244.5,218.5C 238.8,219.024 233.133,219.857 227.5,221C 228.756,221.417 229.423,222.25 229.5,223.5C 227.381,225.4 225.047,227.066 222.5,228.5C 219.521,229.317 216.521,230.151 213.5,231C 212.944,231.383 212.611,231.883 212.5,232.5C 207.833,232.5 203.167,232.5 198.5,232.5C 190.833,229.5 185.5,224.167 182.5,216.5C 181.963,212.019 183.63,210.686 187.5,212.5C 187.281,213.675 187.614,214.675 188.5,215.5C 193.447,214.717 198.447,214.217 203.5,214C 204.056,213.617 204.389,213.117 204.5,212.5C 211.556,208.487 219.223,206.487 227.5,206.5 Z"/></g>
<g><path style="opacity:0.975" fill="#b33a3a" d="M 227.5,206.5 C 231.915,206.861 235.915,208.194 239.5,210.5C 235.856,209.685 232.189,208.852 228.5,208C 227.944,207.617 227.611,207.117 227.5,206.5 Z"/></g>
<g><path style="opacity:0.965" fill="#c23838" d="M 261.5,225.5 C 256.166,222.221 250.332,220.221 244,219.5C 238.949,220.137 234.116,221.47 229.5,223.5C 229.423,222.25 228.756,221.417 227.5,221C 233.133,219.857 238.8,219.024 244.5,218.5C 249.517,219.038 254.184,219.704 258.5,220.5C 259.763,222.029 260.763,223.695 261.5,225.5 Z"/></g>
<g><path style="opacity:0.541" fill="#af3c41" d="M 222.5,228.5 C 219.66,230.915 216.327,232.248 212.5,232.5C 212.611,231.883 212.944,231.383 213.5,231C 216.521,230.151 219.521,229.317 222.5,228.5 Z"/></g>
<g><path style="opacity:0.88" fill="#b73639" d="M 198.5,232.5 C 203.167,232.5 207.833,232.5 212.5,232.5C 207.81,234.959 203.143,234.959 198.5,232.5 Z"/></g>
<g><path style="opacity:0.969" fill="#bc3837" d="M 295.5,228.5 C 292.131,232.348 287.798,234.348 282.5,234.5C 279.971,234.071 277.638,233.404 275.5,232.5C 281.365,232.892 287.032,232.059 292.5,230C 291.549,229.282 291.383,228.449 292,227.5C 293.011,228.337 294.178,228.67 295.5,228.5 Z"/></g>
<g><path style="opacity:0.985" fill="#0e0e0e" d="M 36.5,259.5 C 43.8716,259.385 50.8716,260.885 57.5,264C 62.4394,268.38 64.7728,273.88 64.5,280.5C 61.8127,280.664 59.146,280.497 56.5,280C 54.6669,271.844 49.5003,267.677 41,267.5C 33.6255,267.575 29.1255,271.075 27.5,278C 28.218,279.987 29.218,281.821 30.5,283.5C 39.4452,286.153 48.4452,288.653 57.5,291C 65.75,296.474 68.25,303.974 65,313.5C 62.4744,317.69 58.9744,320.857 54.5,323C 44.58,325.495 34.9134,324.829 25.5,321C 19.2449,316.406 16.5783,310.239 17.5,302.5C 20.1667,302.5 22.8333,302.5 25.5,302.5C 25.7426,309.83 29.4093,314.33 36.5,316C 41.9042,316.772 47.2375,316.439 52.5,315C 59.8969,307.709 58.8969,302.042 49.5,298C 42.8285,296.332 36.1618,294.665 29.5,293C 20.3237,289.14 17.1571,282.307 20,272.5C 23.3181,265.344 28.8181,261.01 36.5,259.5 Z"/></g>
<g><path style="opacity:0.996" fill="#0e0e0e" d="M 288.5,259.5 C 313.245,261.258 324.079,274.591 321,299.5C 316.083,319.053 303.583,327.22 283.5,324C 271.036,320.533 263.869,312.366 262,299.5C 258.903,277.834 267.736,264.5 288.5,259.5 Z M 284.5,268.5 C 302.308,266.801 311.641,274.967 312.5,293C 309.942,313.774 298.942,320.441 279.5,313C 269.532,301.962 268.032,289.796 275,276.5C 277.772,273.217 280.939,270.55 284.5,268.5 Z"/></g>
<g><path style="opacity:0.976" fill="#0e0e0e" d="M 348.5,276.5 C 350.144,276.286 351.644,276.62 353,277.5C 353.497,280.146 353.664,282.813 353.5,285.5C 347.657,284.675 343.157,286.675 340,291.5C 338.597,302.102 338.097,312.769 338.5,323.5C 335.833,323.5 333.167,323.5 330.5,323.5C 330.5,308.5 330.5,293.5 330.5,278.5C 333.167,278.5 335.833,278.5 338.5,278.5C 338.34,280.199 338.506,281.866 339,283.5C 341.529,280.115 344.696,277.782 348.5,276.5 Z"/></g>
<g><path style="opacity:0.975" fill="#0e0e0e" d="M 471.5,276.5 C 472.833,276.5 474.167,276.5 475.5,276.5C 475.5,279.5 475.5,282.5 475.5,285.5C 470.391,284.923 466.224,286.59 463,290.5C 461.569,301.422 461.069,312.422 461.5,323.5C 458.833,323.5 456.167,323.5 453.5,323.5C 453.5,308.5 453.5,293.5 453.5,278.5C 456.167,278.5 458.833,278.5 461.5,278.5C 461.367,283.272 462.7,283.438 465.5,279C 467.611,278.155 469.611,277.322 471.5,276.5 Z"/></g>
<g><path style="opacity:0.988" fill="#0e0e0e" d="M 245.5,261.5 C 248.5,261.5 251.5,261.5 254.5,261.5C 254.5,282.167 254.5,302.833 254.5,323.5C 251.833,323.5 249.167,323.5 246.5,323.5C 246.66,321.801 246.494,320.134 246,318.5C 239.471,325.075 231.971,326.242 223.5,322C 214.095,312.09 211.595,300.59 216,287.5C 221.163,277.924 228.997,274.757 239.5,278C 241.624,279.122 243.457,280.622 245,282.5C 245.5,275.508 245.666,268.508 245.5,261.5 Z M 229.5,284.5 C 238.646,282.651 243.813,286.317 245,295.5C 245.826,300.589 245.492,305.589 244,310.5C 239.007,318.062 233.007,319.062 226,313.5C 221.844,305.304 221.511,296.971 225,288.5C 226.397,286.93 227.897,285.596 229.5,284.5 Z"/></g>
<g><path style="opacity:0.985" fill="#0e0e0e" d="M 387.5,261.5 C 390.167,261.5 392.833,261.5 395.5,261.5C 395.5,282.167 395.5,302.833 395.5,323.5C 392.833,323.5 390.167,323.5 387.5,323.5C 387.66,321.801 387.494,320.134 387,318.5C 384.236,322.767 380.236,324.767 375,324.5C 367.003,324.34 361.337,320.674 358,313.5C 355.097,305.284 354.764,296.951 357,288.5C 362.661,277.637 371.161,274.471 382.5,279C 384.333,280.167 385.833,281.667 387,283.5C 387.5,276.174 387.666,268.841 387.5,261.5 Z M 370.5,284.5 C 378.544,282.766 383.71,285.766 386,293.5C 387.219,298.986 387.219,304.319 386,309.5C 380.221,319.206 373.554,319.873 366,311.5C 363.299,304.936 362.966,298.269 365,291.5C 365.967,288.379 367.8,286.046 370.5,284.5 Z"/></g>
<g><path style="opacity:0.993" fill="#0e0e0e" d="M 422.5,276.5 C 432.126,276.225 438.626,280.558 442,289.5C 442.916,293.832 443.749,298.165 444.5,302.5C 433.52,303.499 422.52,303.832 411.5,303.5C 412.356,314.549 418.023,318.715 428.5,316C 431.5,314.333 433.833,312 435.5,309C 438.227,308.182 440.894,308.348 443.5,309.5C 437.534,323.888 427.201,328.055 412.5,322C 401.571,311.352 399.738,299.186 407,285.5C 410.978,280.267 416.145,277.267 422.5,276.5 Z M 419.5,284.5 C 428.648,282.734 433.981,286.401 435.5,295.5C 427.5,296.833 419.5,296.833 411.5,295.5C 412.68,290.667 415.347,287 419.5,284.5 Z"/></g>
<g><path style="opacity:0.998" fill="#0e0e0e" d="M 139.5,276.5 C 150.591,276.428 157.424,281.761 160,292.5C 160.719,296.145 161.219,299.812 161.5,303.5C 150.495,303.333 139.495,303.5 128.5,304C 131.11,316.713 138.11,320.046 149.5,314C 151.36,308.934 155.027,307.101 160.5,308.5C 159.173,316.661 154.507,321.828 146.5,324C 129.37,325.711 120.37,317.878 119.5,300.5C 120.159,287.196 126.826,279.196 139.5,276.5 Z M 136.5,284.5 C 146.158,282.832 151.491,286.832 152.5,296.5C 144.493,296.666 136.493,296.5 128.5,296C 129.436,290.908 132.102,287.075 136.5,284.5 Z"/></g>
<g><path style="opacity:0.985" fill="#0f0e0f" d="M 92.5,276.5 C 103.17,276.345 110.003,281.345 113,291.5C 115.968,303.344 113.135,313.51 104.5,322C 96.6951,325.961 89.5284,325.128 83,319.5C 82.5004,326.492 82.3337,333.492 82.5,340.5C 79.8333,340.5 77.1667,340.5 74.5,340.5C 74.5,319.833 74.5,299.167 74.5,278.5C 77.1667,278.5 79.8333,278.5 82.5,278.5C 82.3671,283.272 83.7004,283.438 86.5,279C 88.6115,278.155 90.6115,277.322 92.5,276.5 Z M 89.5,284.5 C 98.1153,282.714 103.282,286.047 105,294.5C 106.639,302.09 105.139,308.923 100.5,315C 91.9931,318.938 86.1598,316.438 83,307.5C 81.7189,300.457 82.7189,293.79 86,287.5C 87.1451,286.364 88.3117,285.364 89.5,284.5 Z"/></g>
<g><path style="opacity:0.97" fill="#0e0e0e" d="M 186.5,276.5 C 197.154,276.325 203.987,281.325 207,291.5C 207.828,295.466 208.328,299.466 208.5,303.5C 197.833,303.5 187.167,303.5 176.5,303.5C 175.867,311.923 179.7,316.589 188,317.5C 193.125,316.688 196.958,314.021 199.5,309.5C 202.086,308.52 204.753,308.187 207.5,308.5C 206.201,316.635 201.535,321.802 193.5,324C 180.841,326.259 172.341,321.426 168,309.5C 165.189,297.894 168.022,288.061 176.5,280C 179.776,278.308 183.109,277.141 186.5,276.5 Z M 183.5,284.5 C 193.2,282.882 198.533,286.882 199.5,296.5C 191.833,296.5 184.167,296.5 176.5,296.5C 176.796,291.233 179.129,287.233 183.5,284.5 Z"/></g>
<g><path style="opacity:0.471" fill="#9f3b37" d="M 305.5,355.5 C 303.886,353.925 301.886,353.259 299.5,353.5C 299.795,355.735 299.461,357.735 298.5,359.5C 298.5,357.167 298.5,354.833 298.5,352.5C 300.857,352.337 303.19,352.503 305.5,353C 306.598,353.77 306.598,354.603 305.5,355.5 Z"/></g>
<g><path style="opacity:0.976" fill="#ac3a3a" d="M 73.5,368.5 C 73.8182,363.968 73.4849,359.634 72.5,355.5C 70.0392,354.469 67.3725,353.802 64.5,353.5C 64.5,359.167 64.5,364.833 64.5,370.5C 63.5028,370.53 62.8361,370.03 62.5,369C 63.6836,363.51 63.6836,358.01 62.5,352.5C 65.8499,352.335 69.1832,352.502 72.5,353C 73,353.5 73.5,354 74,354.5C 74.8151,359.352 74.6484,364.019 73.5,368.5 Z M 70.5,359.5 C 70.5,361.833 70.5,364.167 70.5,366.5C 69.5,366.5 68.5,366.5 67.5,366.5C 67.5,363.5 67.5,360.5 67.5,357.5C 68.209,356.596 69.209,356.263 70.5,356.5C 70.5,357.5 70.5,358.5 70.5,359.5 Z"/></g>
<g><path style="opacity:0.992" fill="#b33839" d="M 142.5,354.5 C 139.833,354.5 137.167,354.5 134.5,354.5C 134.334,359.179 134.501,363.845 135,368.5C 135.717,369.044 136.217,369.711 136.5,370.5C 134.983,370.489 133.816,369.823 133,368.5C 132.333,363.833 132.333,359.167 133,354.5C 134.299,353.02 135.966,352.354 138,352.5C 140.008,352.307 141.508,352.974 142.5,354.5 Z"/></g>
<g><path style="opacity:0.384" fill="#984241" d="M 349.5,353.5 C 350.919,352.549 352.585,352.216 354.5,352.5C 354.768,354.099 354.434,355.432 353.5,356.5C 353.306,354.088 351.973,353.088 349.5,353.5 Z"/></g>
<g><path style="opacity:0.951" fill="#b13535" d="M 378.5,353.5 C 375.833,353.5 373.167,353.5 370.5,353.5C 370.5,359.167 370.5,364.833 370.5,370.5C 369.503,370.53 368.836,370.03 368.5,369C 369.808,364.154 369.808,359.32 368.5,354.5C 368.709,353.914 369.043,353.414 369.5,353C 372.696,352.195 375.696,352.362 378.5,353.5 Z"/></g>
<g><path style="opacity:0.988" fill="#b73838" d="M 399.5,357.5 C 400.5,357.5 401.5,357.5 402.5,357.5C 402.5,356.5 402.5,355.5 402.5,354.5C 399.833,354.5 397.167,354.5 394.5,354.5C 394.611,353.883 394.944,353.383 395.5,353C 400.895,351.183 403.562,353.016 403.5,358.5C 401.901,358.768 400.568,358.434 399.5,357.5 Z"/></g>
<g><path style="opacity:0.984" fill="#b53836" d="M 186.5,356.5 C 186.631,355.624 186.298,354.957 185.5,354.5C 185.123,359.243 184.123,363.576 182.5,367.5C 182.5,362.5 182.5,357.5 182.5,352.5C 184.167,352.5 185.833,352.5 187.5,352.5C 187.768,354.099 187.434,355.432 186.5,356.5 Z"/></g>
<g><path style="opacity:0.988" fill="#b53a3a" d="M 238.5,356.5 C 237.752,354.265 236.919,354.598 236,357.5C 235.819,360.695 235.319,363.695 234.5,366.5C 234.5,361.833 234.5,357.167 234.5,352.5C 236.167,352.5 237.833,352.5 239.5,352.5C 239.768,354.099 239.434,355.432 238.5,356.5 Z"/></g>
<g><path style="opacity:0.868" fill="#be3130" d="M 349.5,354.5 C 349.5,354.167 349.5,353.833 349.5,353.5C 351.973,353.088 353.306,354.088 353.5,356.5C 353.437,361.203 353.771,365.87 354.5,370.5C 352.833,370.5 351.167,370.5 349.5,370.5C 349.5,368.833 349.5,367.167 349.5,365.5C 350.161,366.718 350.828,368.051 351.5,369.5C 352.66,365.541 352.827,361.541 352,357.5C 351.764,355.881 350.931,354.881 349.5,354.5 Z"/></g>
<g><path style="opacity:0.961" fill="#b83536" d="M 162.5,356.5 C 162.631,355.624 162.298,354.957 161.5,354.5C 160.782,359.182 160.116,363.849 159.5,368.5C 161.396,369.466 163.396,369.799 165.5,369.5C 165.5,368.5 165.5,367.5 165.5,366.5C 167.176,367.183 167.843,368.517 167.5,370.5C 164.5,370.5 161.5,370.5 158.5,370.5C 158.5,364.5 158.5,358.5 158.5,352.5C 160.167,352.5 161.833,352.5 163.5,352.5C 163.768,354.099 163.434,355.432 162.5,356.5 Z"/></g>
<g><path style="opacity:0.043" fill="#ae3534" d="M 231.5,356.5 C 231.179,354.952 230.179,354.285 228.5,354.5C 228.5,358.833 228.5,363.167 228.5,367.5C 227.513,362.695 227.179,357.695 227.5,352.5C 229.167,352.5 230.833,352.5 232.5,352.5C 232.768,354.099 232.434,355.432 231.5,356.5 Z"/></g>
<g><path style="opacity:0.678" fill="#b23436" d="M 346.5,355.5 C 345.292,354.766 343.959,354.433 342.5,354.5C 342.5,359.833 342.5,365.167 342.5,370.5C 341.503,370.53 340.836,370.03 340.5,369C 341.684,363.51 341.684,358.01 340.5,352.5C 342.199,352.34 343.866,352.506 345.5,353C 346.252,353.671 346.586,354.504 346.5,355.5 Z"/></g>
<g><path style="opacity:0.957" fill="#bd3434" d="M 72.5,355.5 C 73.4849,359.634 73.8182,363.968 73.5,368.5C 73.0269,369.906 72.0269,370.573 70.5,370.5C 72.1128,369.162 72.6128,367.495 72,365.5C 70.8261,367.671 68.9928,368.671 66.5,368.5C 66.185,364.629 66.5184,360.962 67.5,357.5C 67.5,360.5 67.5,363.5 67.5,366.5C 68.5,366.5 69.5,366.5 70.5,366.5C 70.5,364.167 70.5,361.833 70.5,359.5C 72.1765,358.817 72.8432,357.483 72.5,355.5 Z"/></g>
<g><path style="opacity:0.157" fill="#ad3235" d="M 210.5,353.5 C 207.635,353.055 205.135,353.722 203,355.5C 202.188,359.689 202.355,363.689 203.5,367.5C 204.167,368.5 204.833,369.5 205.5,370.5C 203.983,370.489 202.816,369.823 202,368.5C 201.333,363.833 201.333,359.167 202,354.5C 204.698,352.327 207.531,351.994 210.5,353.5 Z"/></g>
<g><path style="opacity:0.62" fill="#ce3030" d="M 346.5,355.5 C 346.783,356.289 347.283,356.956 348,357.5C 348.232,356.263 348.732,355.263 349.5,354.5C 350.931,354.881 351.764,355.881 352,357.5C 352.827,361.541 352.66,365.541 351.5,369.5C 350.828,368.051 350.161,366.718 349.5,365.5C 348.167,365.5 346.833,365.5 345.5,365.5C 345.5,367.167 345.5,368.833 345.5,370.5C 344.5,370.5 343.5,370.5 342.5,370.5C 342.5,365.167 342.5,359.833 342.5,354.5C 343.959,354.433 345.292,354.766 346.5,355.5 Z"/></g>
<g><path style="opacity:0.824" fill="#d02e2c" d="M 162.5,356.5 C 162.5,359.833 162.5,363.167 162.5,366.5C 163.5,366.5 164.5,366.5 165.5,366.5C 165.5,367.5 165.5,368.5 165.5,369.5C 163.396,369.799 161.396,369.466 159.5,368.5C 160.116,363.849 160.782,359.182 161.5,354.5C 162.298,354.957 162.631,355.624 162.5,356.5 Z"/></g>
<g><path style="opacity:0.905" fill="#d32e2e" d="M 210.5,353.5 C 212.436,357.715 213.103,362.381 212.5,367.5C 211.167,364.167 209.833,360.833 208.5,357.5C 207.652,356.375 206.652,356.375 205.5,357.5C 204.833,360.833 204.167,364.167 203.5,367.5C 202.355,363.689 202.188,359.689 203,355.5C 205.135,353.722 207.635,353.055 210.5,353.5 Z M 208.5,357.5 C 208.5,360.5 208.5,363.5 208.5,366.5C 207.5,366.5 206.5,366.5 205.5,366.5C 205.5,363.5 205.5,360.5 205.5,357.5C 206.652,356.375 207.652,356.375 208.5,357.5 Z"/></g>
<g><path style="opacity:0.314" fill="#b14142" d="M 260.5,359.5 C 262.176,360.183 262.843,361.517 262.5,363.5C 261.5,363.5 260.5,363.5 259.5,363.5C 260.234,362.292 260.567,360.959 260.5,359.5 Z"/></g>
<g><path style="opacity:1" fill="#ce302e" d="M 142.5,354.5 C 143.434,355.568 143.768,356.901 143.5,358.5C 141.508,358.672 139.842,358.005 138.5,356.5C 137.914,356.709 137.414,357.043 137,357.5C 136.502,360.482 136.335,363.482 136.5,366.5C 138.737,365.551 141.071,364.884 143.5,364.5C 143.875,369.495 141.542,371.495 136.5,370.5C 136.217,369.711 135.717,369.044 135,368.5C 134.501,363.845 134.334,359.179 134.5,354.5C 137.167,354.5 139.833,354.5 142.5,354.5 Z"/></g>
<g><path style="opacity:0.269" fill="#b03c3e" d="M 98.5,354.5 C 95.8333,354.5 93.1667,354.5 90.5,354.5C 89.5375,358.796 89.3708,363.129 90,367.5C 91.045,368.373 91.8783,369.373 92.5,370.5C 90.9826,370.489 89.8159,369.823 89,368.5C 88.3333,363.833 88.3333,359.167 89,354.5C 90.2991,353.02 91.9658,352.354 94,352.5C 96.0081,352.307 97.5081,352.974 98.5,354.5 Z"/></g>
<g><path style="opacity:1" fill="#cd3133" d="M 98.5,354.5 C 99.6497,359.316 99.8163,364.316 99,369.5C 96.9592,370.423 94.7925,370.756 92.5,370.5C 91.8783,369.373 91.045,368.373 90,367.5C 89.3708,363.129 89.5375,358.796 90.5,354.5C 93.1667,354.5 95.8333,354.5 98.5,354.5 Z M 92.5,356.5 C 93.5,356.5 94.5,356.5 95.5,356.5C 95.5,359.833 95.5,363.167 95.5,366.5C 94.5,366.5 93.5,366.5 92.5,366.5C 92.5,363.167 92.5,359.833 92.5,356.5 Z"/></g>
<g><path style="opacity:1" fill="#c83433" d="M 420.5,352.5 C 422.833,352.5 425.167,352.5 427.5,352.5C 427.776,358.547 428.443,364.547 429.5,370.5C 428.167,370.5 426.833,370.5 425.5,370.5C 425.5,369.167 425.5,367.833 425.5,366.5C 424.5,366.5 423.5,366.5 422.5,366.5C 422.5,367.833 422.5,369.167 422.5,370.5C 420.571,370.769 418.905,370.269 417.5,369C 419.459,363.7 420.459,358.2 420.5,352.5 Z"/></g>
<g><path style="opacity:1" fill="#d42f31" d="M 72.5,355.5 C 72.8432,357.483 72.1765,358.817 70.5,359.5C 70.5,358.5 70.5,357.5 70.5,356.5C 69.209,356.263 68.209,356.596 67.5,357.5C 66.5184,360.962 66.185,364.629 66.5,368.5C 68.9928,368.671 70.8261,367.671 72,365.5C 72.6128,367.495 72.1128,369.162 70.5,370.5C 68.5,370.5 66.5,370.5 64.5,370.5C 64.5,364.833 64.5,359.167 64.5,353.5C 67.3725,353.802 70.0392,354.469 72.5,355.5 Z"/></g>
<g><path style="opacity:0.98" fill="#c73030" d="M 260.5,359.5 C 260.567,360.959 260.234,362.292 259.5,363.5C 258.596,364.209 258.263,365.209 258.5,366.5C 260.167,366.5 261.833,366.5 263.5,366.5C 263.5,367.833 263.5,369.167 263.5,370.5C 260.167,370.5 256.833,370.5 253.5,370.5C 254.833,364.5 254.833,358.5 253.5,352.5C 256.833,352.5 260.167,352.5 263.5,352.5C 263.5,354.167 263.5,355.833 263.5,357.5C 262.07,357.579 260.736,357.246 259.5,356.5C 258.202,358.052 258.535,359.052 260.5,359.5 Z"/></g>
<g><path style="opacity:0.996" fill="#cb3130" d="M 305.5,355.5 C 306.372,360.527 307.372,365.527 308.5,370.5C 305.05,371.244 303.384,369.91 303.5,366.5C 302.5,366.5 301.5,366.5 300.5,366.5C 300.5,367.833 300.5,369.167 300.5,370.5C 299.167,370.5 297.833,370.5 296.5,370.5C 296.691,366.738 297.358,363.071 298.5,359.5C 299.461,357.735 299.795,355.735 299.5,353.5C 301.886,353.259 303.886,353.925 305.5,355.5 Z"/></g>
<g><path style="opacity:0.98" fill="#cd3031" d="M 378.5,353.5 C 378.5,354.833 378.5,356.167 378.5,357.5C 377.07,357.579 375.736,357.246 374.5,356.5C 373.614,357.325 373.281,358.325 373.5,359.5C 374.833,359.5 376.167,359.5 377.5,359.5C 377.5,360.833 377.5,362.167 377.5,363.5C 376.167,363.5 374.833,363.5 373.5,363.5C 373.5,364.5 373.5,365.5 373.5,366.5C 375.167,366.5 376.833,366.5 378.5,366.5C 378.5,367.833 378.5,369.167 378.5,370.5C 375.833,370.5 373.167,370.5 370.5,370.5C 370.5,364.833 370.5,359.167 370.5,353.5C 373.167,353.5 375.833,353.5 378.5,353.5 Z"/></g>
<g><path style="opacity:1" fill="#cc3132" d="M 394.5,354.5 C 397.167,354.5 399.833,354.5 402.5,354.5C 402.5,355.5 402.5,356.5 402.5,357.5C 401.5,357.5 400.5,357.5 399.5,357.5C 399.44,356.957 399.107,356.624 398.5,356.5C 397.614,357.325 397.281,358.325 397.5,359.5C 399.722,359.178 401.556,359.845 403,361.5C 405.456,369.879 402.622,372.545 394.5,369.5C 393.548,367.955 393.215,366.288 393.5,364.5C 395.492,364.328 397.158,364.995 398.5,366.5C 399.386,365.675 399.719,364.675 399.5,363.5C 397.278,363.822 395.444,363.155 394,361.5C 393.204,358.961 393.371,356.628 394.5,354.5 Z"/></g>
<g><path style="opacity:1" fill="#cb2e2e" d="M 186.5,356.5 C 186.437,361.203 186.771,365.87 187.5,370.5C 185.833,370.5 184.167,370.5 182.5,370.5C 182.5,369.5 182.5,368.5 182.5,367.5C 184.123,363.576 185.123,359.243 185.5,354.5C 186.298,354.957 186.631,355.624 186.5,356.5 Z"/></g>
<g><path style="opacity:1" fill="#c43131" d="M 205.5,357.5 C 205.5,360.5 205.5,363.5 205.5,366.5C 206.5,366.5 207.5,366.5 208.5,366.5C 208.5,363.5 208.5,360.5 208.5,357.5C 209.833,360.833 211.167,364.167 212.5,367.5C 212.426,369.411 211.426,370.578 209.5,371C 207.934,371.765 206.601,371.598 205.5,370.5C 204.833,369.5 204.167,368.5 203.5,367.5C 204.167,364.167 204.833,360.833 205.5,357.5 Z"/></g>
<g><path style="opacity:1" fill="#ca2f2f" d="M 231.5,356.5 C 231.729,359.337 231.896,362.337 232,365.5C 232.671,366.252 233.504,366.586 234.5,366.5C 235.319,363.695 235.819,360.695 236,357.5C 236.919,354.598 237.752,354.265 238.5,356.5C 238.666,360.846 238.499,365.179 238,369.5C 235.263,370.61 232.429,370.777 229.5,370C 228.748,369.329 228.414,368.496 228.5,367.5C 228.5,363.167 228.5,358.833 228.5,354.5C 230.179,354.285 231.179,354.952 231.5,356.5 Z"/></g>
</svg>
