<?xml version="1.0" standalone="no"?>
<!DOCTYPE svg PUBLIC "-//W3C//DTD SVG 20010904//EN"
 "http://www.w3.org/TR/2001/REC-SVG-20010904/DTD/svg10.dtd">
<svg version="1.0" xmlns="http://www.w3.org/2000/svg"
 width="260.000000pt" height="333.000000pt" viewBox="0 0 260.000000 333.000000"
 preserveAspectRatio="xMidYMid meet">

<g transform="translate(0.000000,333.000000) scale(0.100000,-0.100000)"
fill="#000000" stroke="none">
<path d="M1135 2263 c-253 -31 -432 -103 -562 -227 -94 -89 -128 -154 -129
-251 -2 -108 -1 -105 -32 -105 -36 0 -72 -26 -72 -51 0 -11 10 -30 23 -43 l23
-23 -28 -32 c-18 -20 -28 -42 -28 -63 l0 -31 55 7 55 6 0 -45 c0 -43 -1 -45
-30 -45 -29 0 -70 -29 -70 -51 0 -22 22 -49 50 -64 18 -9 30 -23 30 -35 0 -11
9 -25 19 -32 15 -9 17 -17 10 -35 -5 -14 -9 -35 -9 -48 0 -15 -7 -26 -20 -30
-11 -3 -29 -19 -40 -35 -19 -27 -20 -43 -20 -389 l0 -360 34 -34 c33 -34 35
-34 147 -40 67 -3 118 -2 124 4 5 5 41 8 80 7 69 -1 70 -1 20 -8 l-50 -7 68
-1 c39 -1 67 2 67 8 0 6 14 10 31 10 17 0 28 -4 24 -10 -4 -6 17 -10 54 -10
34 0 61 4 61 9 0 5 231 6 525 3 l524 -5 36 36 35 35 0 367 0 367 -29 28 c-16
16 -32 45 -35 65 -4 20 -10 43 -13 52 -5 13 -3 13 15 4 53 -28 112 3 112 60 0
42 -47 89 -90 89 -31 0 -32 1 -26 31 3 17 6 38 6 46 0 12 10 14 50 8 58 -8 67
2 55 63 -9 49 -89 128 -140 138 l-36 6 23 16 c35 24 37 29 37 136 1 132 -21
181 -122 280 -117 116 -281 188 -499 220 -96 15 -237 19 -313 9z m290 -44
c279 -38 499 -160 580 -319 28 -55 24 -72 -17 -86 -16 -5 -18 -8 -7 -15 8 -5
19 -9 24 -9 6 0 4 4 -3 9 -11 7 -10 9 3 14 9 4 13 3 10 -3 -3 -6 0 -10 7 -10
8 -1 6 -6 -6 -15 -13 -10 -23 -12 -30 -5 -5 5 -19 10 -31 10 -19 -1 -19 -1 -1
-12 11 -6 33 -11 50 -11 17 0 23 -2 14 -4 -10 -3 -18 -9 -18 -14 0 -5 -10 -3
-22 5 -27 17 -81 33 -58 17 12 -8 9 -12 -13 -20 -15 -6 -27 -13 -27 -15 0 -6
37 1 50 9 14 9 52 -4 45 -16 -4 -5 -11 -9 -16 -9 -6 0 -7 5 -4 10 8 13 -8 13
-21 0 -5 -5 -23 -11 -39 -11 -17 -1 -51 -8 -76 -14 -31 -9 -57 -10 -80 -4 -34
9 -34 9 6 4 27 -3 35 -1 25 5 -17 10 -19 9 65 34 28 8 44 15 36 15 -19 1 -94
-21 -108 -32 -7 -5 -21 -6 -32 -2 -14 4 -21 0 -26 -15 -5 -14 -15 -20 -38 -20
-25 0 -29 -3 -17 -11 11 -8 7 -9 -17 -4 -17 3 -49 2 -70 -4 -25 -7 -39 -7 -41
-1 -2 6 -13 10 -25 9 -21 0 -21 -1 -2 -9 13 -6 2 -7 -29 -3 -39 5 -47 3 -41
-7 7 -11 -34 -12 -221 -7 -307 8 -514 32 -649 74 -73 23 -78 29 -71 87 12 104
114 222 255 295 110 57 206 86 381 114 53 9 232 7 305 -4z m312 -535 c-3 -3
-12 -4 -19 -1 -8 3 -5 6 6 6 11 1 17 -2 13 -5z m-1236 -53 c49 -22 213 -57
314 -67 92 -10 63 -20 -77 -28 l-117 -7 -17 26 c-13 20 -24 25 -58 25 -56 0
-157 17 -169 29 -5 5 -7 17 -4 25 9 22 74 21 128 -3z m1489 -55 c0 -43 -50
-62 -110 -41 -32 11 -46 11 -83 0 -35 -10 -54 -11 -81 -3 -32 10 -39 9 -60
-11 -22 -20 -28 -21 -66 -11 -30 8 -51 8 -72 1 -39 -14 -92 -14 -142 0 -28 8
-46 7 -66 -1 -20 -8 -70 -9 -191 -1 -190 13 -238 19 -220 30 7 5 153 6 324 3
334 -5 520 5 667 37 47 11 88 19 93 20 4 1 7 -10 7 -23z m114 -44 c29 -27 62
-90 52 -100 -3 -3 -43 3 -88 13 -46 10 -114 18 -153 19 -128 2 -196 -42 -257
-166 l-33 -67 -60 45 c-74 57 -168 105 -260 134 -87 27 -267 38 -375 21 -62
-10 -212 -55 -281 -85 -12 -5 -19 3 -28 31 -31 95 -120 135 -229 104 -41 -12
-42 2 -2 39 32 30 67 40 140 40 40 0 48 -4 58 -25 14 -31 54 -41 109 -27 55
15 156 15 170 1 6 -6 73 -15 150 -20 76 -5 158 -13 183 -19 35 -8 56 -7 92 4
32 9 60 11 85 6 47 -10 276 -5 295 6 12 8 54 12 163 14 22 1 57 -2 78 -5 43
-8 81 11 99 51 10 21 17 24 37 19 14 -4 39 -18 55 -33z m-137 -123 c-16 -9
-91 -27 -191 -44 -36 -6 -38 -5 -27 9 8 9 28 16 45 16 17 0 54 7 81 14 28 8
64 14 80 15 25 0 27 -1 12 -10z m-794 -25 c70 -3 129 -10 132 -14 5 -8 -91 -6
-295 6 -67 4 -98 9 -85 14 11 5 43 7 70 4 28 -2 107 -6 178 -10z m-686 -68
c75 -38 296 -74 537 -88 l210 -12 -40 -18 c-50 -22 -66 -22 -110 1 -33 18 -38
18 -72 4 -28 -12 -44 -13 -72 -4 -19 6 -52 8 -72 4 -21 -3 -58 0 -83 6 -40 10
-50 9 -85 -9 -48 -24 -73 -25 -110 -3 -26 15 -34 15 -70 3 -47 -16 -71 -7 -80
29 -3 11 -20 30 -37 41 -37 22 -42 44 -15 59 26 16 46 13 99 -13z m1653 -51
c20 -18 25 -41 14 -69 -8 -20 -52 -20 -78 -1 -13 10 -24 11 -36 5 -18 -10
-140 24 -140 39 0 4 24 13 53 20 28 6 59 16 67 22 22 14 98 4 120 -16z m-559
-90 c-1 -15 -24 -12 -29 3 -3 9 2 13 12 10 10 -1 17 -7 17 -13z m181 -27 c-9
-9 -15 -9 -24 0 -10 10 -10 15 2 22 20 12 38 -6 22 -22z m-419 -3 c1 -5 -6
-11 -15 -13 -11 -2 -18 3 -18 13 0 17 30 18 33 0z m-790 -24 c205 -88 919
-110 1276 -40 57 12 123 29 147 39 24 11 46 15 49 11 8 -14 2 -61 -8 -61 -5 0
-5 -6 2 -13 17 -21 -6 -39 -30 -24 -14 9 -21 8 -31 -2 -11 -12 -10 -13 6 -7
14 5 17 3 12 -10 -5 -12 -2 -15 11 -10 13 5 11 1 -6 -18 -22 -24 -40 -29 -51
-15 -3 4 -16 2 -30 -3 -18 -7 -21 -11 -11 -17 11 -7 -2 -13 -64 -27 -5 -1 -14
-3 -20 -4 -5 -1 -14 -2 -19 -1 -4 1 -15 -4 -23 -10 -11 -10 -14 -10 -11 2 2 8
7 17 11 20 16 12 -4 37 -26 31 -20 -5 -20 -6 -1 -14 12 -5 5 -6 -21 -3 -37 5
-119 -10 -85 -16 8 -1 -5 -5 -30 -9 l-45 -7 59 -1 c70 -2 70 -9 1 -16 -28 -2
-70 -8 -95 -12 -48 -7 -48 10 0 19 21 3 19 5 -8 6 -19 0 -40 -6 -49 -15 -13
-12 -18 -13 -24 -3 -6 11 -16 11 -51 -1 -33 -11 -86 -14 -223 -12 -291 3 -506
31 -592 75 -63 33 -105 112 -88 166 8 26 12 26 68 2z m-78 -134 c40 -63 104
-91 285 -124 141 -26 850 -26 990 0 167 30 225 53 274 108 l44 49 21 -26 c20
-26 21 -37 21 -356 l0 -330 -33 -33 c-28 -28 -42 -34 -97 -40 -36 -3 -387 -5
-780 -3 -661 3 -717 4 -747 21 -43 23 -63 64 -63 127 0 46 2 50 23 50 44 0 47
13 47 215 0 202 -3 215 -47 215 -21 0 -23 5 -23 48 0 50 29 112 52 112 7 -1
22 -15 33 -33z m1231 -62 c5 -12 10 -13 20 -4 10 8 14 8 14 0 0 -11 -6 -13
-32 -14 -19 0 -48 14 -48 24 0 15 40 10 46 -6z"/>
<path d="M1650 2025 c0 -19 48 -31 63 -16 9 9 8 14 -3 21 -23 15 -60 12 -60
-5z"/>
<path d="M1290 1971 c0 -19 18 -31 46 -31 19 0 18 20 -3 36 -26 19 -43 17 -43
-5z"/>
<path d="M896 1954 c-11 -29 -6 -44 14 -44 16 0 20 7 20 30 0 32 -23 42 -34
14z"/>
<path d="M1468 1899 c-21 -12 -24 -49 -5 -49 19 0 50 37 42 49 -8 13 -15 13
-37 0z"/>
<path d="M640 1875 c0 -18 48 -31 62 -17 16 16 0 32 -33 32 -19 0 -29 -5 -29
-15z"/>
<path d="M983 1813 c-7 -17 13 -33 40 -33 10 0 17 8 17 19 0 24 -49 36 -57 14z"/>
<path d="M1805 1720 c-13 -5 -14 -9 -5 -9 8 0 24 4 35 9 13 5 14 9 5 9 -8 0
-24 -4 -35 -9z"/>
<path d="M1608 1693 c7 -3 16 -2 19 1 4 3 -2 6 -13 5 -11 0 -14 -3 -6 -6z"/>
<path d="M1921 1014 c-1 -6 -11 -10 -22 -10 -12 1 -24 -5 -26 -11 -3 -8 3 -13
14 -13 15 0 16 2 3 10 -13 8 -13 10 2 10 9 0 19 -6 21 -12 4 -10 6 -10 6 0 1
10 5 9 17 -3 11 -11 20 -13 26 -7 13 13 0 35 -17 28 -8 -3 -16 0 -19 7 -2 7
-5 8 -5 1z"/>
<path d="M1810 983 c-42 -8 -42 -18 0 -30 33 -8 42 -7 52 5 11 13 10 15 -4 9
-12 -4 -15 -2 -11 9 3 7 1 13 -3 13 -5 -1 -20 -4 -34 -6z"/>
<path d="M1315 890 l-20 -9 20 0 c11 0 27 4 35 9 13 9 13 10 0 9 -8 0 -24 -4
-35 -9z"/>
<path d="M563 680 c-51 -20 -56 -77 -10 -116 31 -27 31 -27 6 -21 -30 8 -55
-13 -46 -37 8 -20 73 -31 102 -18 15 7 26 8 30 2 4 -6 17 -10 31 -10 19 0 24
5 24 25 0 19 8 28 27 36 16 6 36 18 45 26 17 15 18 13 18 -35 l0 -50 173 0
c194 1 219 7 243 63 19 47 18 88 -6 117 l-19 25 -186 -1 c-162 -1 -188 -3
-199 -18 -11 -15 -13 -15 -23 0 -12 19 -95 21 -117 3 -7 -6 -16 -7 -22 -2 -16
15 -48 20 -71 11z m367 -90 c0 -30 -4 -40 -16 -40 -13 0 -14 3 -4 15 7 8 10
25 6 40 -4 14 -2 25 4 25 5 0 10 -18 10 -40z m140 0 c0 -30 -4 -40 -16 -40
-13 0 -14 3 -4 14 6 8 11 23 10 33 -3 23 -1 33 5 33 3 0 5 -18 5 -40z m-340
26 c0 -3 -4 -8 -10 -11 -5 -3 -10 -1 -10 4 0 6 5 11 10 11 6 0 10 -2 10 -4z
m422 -31 c-2 -14 -8 -25 -13 -25 -10 0 -11 7 -3 37 8 31 23 20 16 -12z m-512
5 c0 -5 -2 -10 -4 -10 -3 0 -8 5 -11 10 -3 6 -1 10 4 10 6 0 11 -4 11 -10z"/>
<path d="M1321 664 c-76 -97 3 -234 90 -157 15 12 17 11 22 -7 8 -32 59 -24
68 10 4 14 7 20 8 14 1 -5 7 -19 15 -29 11 -16 16 -17 29 -7 12 10 20 11 35 1
28 -17 87 -3 111 27 l20 25 3 -28 3 -28 100 0 c96 0 99 1 105 24 l5 24 12 -27
c14 -30 20 -31 47 -11 17 13 18 18 8 40 -10 21 -9 32 2 53 15 29 11 78 -7 89
-15 9 -204 14 -239 7 -17 -3 -28 -12 -28 -22 0 -13 -4 -11 -20 6 -32 34 -119
23 -121 -15 0 -15 -2 -14 -9 3 -11 28 -35 36 -88 28 -31 -5 -46 -12 -52 -28
-5 -11 -9 -16 -9 -9 -2 21 -32 43 -61 43 -19 0 -36 -9 -49 -26z m341 -88 c-9
-18 -11 -16 -11 19 0 33 1 37 10 21 8 -12 8 -25 1 -40z m208 14 c0 -26 -5 -40
-13 -40 -9 0 -11 12 -9 40 2 22 8 40 13 40 5 0 9 -18 9 -40z m-491 23 c0 -5
-4 -17 -9 -28 -8 -18 -9 -17 -9 8 -1 15 4 27 9 27 6 0 10 -3 9 -7z m205 -53
c-6 -25 -9 -29 -16 -16 -5 10 -5 24 2 37 16 28 22 19 14 -21z"/>
</g>
</svg>
